<?xml version="1.0" encoding="utf-8"?>
<!-- Generator: Adobe Illustrator 25.0.1, SVG Export Plug-In . SVG Version: 6.00 Build 0)  -->
<svg version="1.1" id="katman_1" xmlns="http://www.w3.org/2000/svg" xmlns:xlink="http://www.w3.org/1999/xlink" x="0px" y="0px"
	 viewBox="0 0 560 400" style="enable-background:new 0 0 560 00;" xml:space="preserve">
<style type="text/css">
	.st0{fill:#002967;}
	.st1{fill:#B31934;}
	.st2{fill:#FFFFFF;}
	.st3{fill:#C3C7CD;}
</style>
<g transform="matrix(1.28602 0 0 -1.28602 -135.047 885.725)">
	<path class="st0" d="M232.8,605.1c-4.4,1.8-8.5,4.5-9.9,5.8c-1.5,1.3-4.9,5.7-5.7,8.5c-0.8,2.9,1.2,5,1.2,5s0.5,1.7,9.3,0.7
		c8.8-1,12.3,1.4,14.3,5.2s4.8,7.9,8.2,7.6c3.5-0.3,10.6-0.9,15.5-3.7s8-6.4,9.1-7.9c1.1-1.6,5.6-10,9.3-10.3
		c3.8-0.3,10,0.3,12.8,0.5c2.8,0.2,15.5,0.6,24.2-2.2c8.7-2.8,7-2.5,7.8-1.6c0.8,0.9,1.9,6.5,3.8,8.2c2,1.7,5.7,4.8,11.6,4.4
		c6-0.4,9.7-1.3,15.2-6.9c5.5-5.6,7.6-12,16-15.7c0,0,5.1-2.7,6.1-4.3c1-1.6,1.1-3.8-1.5-5.3c-2.7-1.5-4.3-2.3-4.3-2.3
		s0.4-3.4,4.6-4.5c4.2-1.1,11.7-3.6,16.5-6.6c4.8-3,9.5-7.5,9.7-13.4c0.2-5.9-4.3-10-12.4-9.9c0,0,7-5.3,8.7-6.9
		c1.7-1.7,2.9-0.9,2.9-0.9s8.5,2.8,13.9-2.7c5.4-5.5,5.4-11.4,5.9-19.2c0,0,4.1,5.3,1.3,17.7c0,0,7.7-1.4,12-10.4
		c0,0,2.6-6.9,3.3-13.1c0,0,5-0.3,8-3.4c3-3.1,3.6-7,3.7-10.5c0.1-3.6,0.3-5.8,0.3-6.2c0-0.4-2.2-7.7-14.1-11.6c0,0-1.2-0.9-1.6-2.6
		c-0.4-1.7-1.4-10.4-9.7-16.1c-8.3-5.7-14.8-4.4-14.8-4.4s-4.8,0.4-7.2-0.2c-2.5-0.6-12.6-2.3-18.9-1.1c0,0-5.2-6.7-22.8-8.9
		c0,0-16.3-1.8-18.5-3.3c-2.2-1.5-5.7-5.1-12.6-7.7c0,0,2.8-15-1.6-16.4c-4.4-1.4-15,12.1-15,12.1s-18.4-1.5-29.5,0.9
		c-11.1,2.4-15.7,5.1-15.7,5.1s-7.7-9-11.5-8.2c0,0-1.3,0-1.6,2.3c-0.3,2.3-0.9,10.2-0.9,10.2s-17.1,6.5-27.4,17.9
		c0,0-7.9,8.9-11.1,16.4c0,0-12-0.1-12.2,2.8c-0.2,3,6.4,6.9,6.4,6.9s-5.5,9.2-8.7,23.3c0,0-1.9,14.3-1.8,16.6
		c0.1,2.3-1.5,2.9-1.5,2.9s-11.2,4.3-10.5,6.6c0.7,2.3,11.9,7.4,11.9,7.4s2.2,23.8,15.1,39c0,0-9.3,9.8-7.3,12.5
		c2,2.8,13.8-1.8,13.8-1.8s1.2-1,3.2,0.2C230,603,232.8,605.1,232.8,605.1"/>
	<path class="st1" d="M248.9,602.9c-6.4-1.1-13.2,1-13.2,1l-4.8-4.1c0,0,4-1.7,4.9-2.3c0.9-0.5,1.9-1.9,2.3-3.1c0,0,5.5,7.6,10.9,8
		C249.8,602.4,248.9,602.9,248.9,602.9L248.9,602.9z M222.7,564l9.8,16.9c-8-0.7-11.8,6.6-11.8,6.6c-11.9-14-14-35.3-14-35.3
		c12.2,3.3,14.6,0.3,14.6,0.3C219.6,557.7,222.7,564,222.7,564z M216.7,497.4l10.5,7.9c0,0,3,1.9,6.1,0.5c0,0-6.4,10.9-7.7,17.6
		c-1.3,6.7-2.2,11-2.6,12.8c0,0-3.4-1.7-6.8-1.6c-3.4,0.1-9.4,2-9.4,2s0.6-16.4,4.2-25.8C214.5,501.5,216.7,497.4,216.7,497.4
		L216.7,497.4z M239.6,490.4c-0.6-2.2-1.3-2.9-5.4-4c-4.1-1.1-11.2-0.8-11.2-0.8s2.9-7.5,12-16.3c9.2-8.7,23.4-15.2,23.4-15.2
		s0.9,4.9,1.7,7.6c0.8,2.7,1.8,3.1,1.8,3.1s-4.7-0.3-8,1.8s-7.9,9.6-7.9,9.6s-3.4,6.2-4.3,9.4C240.8,488.9,239.7,490.9,239.6,490.4
		L239.6,490.4z M274.9,449.5c1.9-1,9.5-4.2,19.3-5.1c9.7-0.9,21.4-0.4,21.4-0.4s-0.9,2-1.1,4.6c-0.1,2.6,2.1,3.5,2.1,3.5
		c-17.2-2.9-24.5-1.6-30.8-0.4c-6.3,1.1-8.7,4.8-8.7,4.8s-0.3-2-0.8-2.9c-0.5-0.9-1-1.9-2.3-3.7L274.9,449.5z M340,452.7
		c-3-2.8-7.3-4.7-7.3-4.7s-0.4,1.8-0.6,2.4c-0.1,0.5-0.7,1.2-0.7,1.2c0.4,0.4,1.3,0.6,1.3,0.6l7.8,1.4
		C340.6,453.5,340.9,453.6,340,452.7"/>
	<path class="st2" d="M426.9,514.4c0,0,5.4-0.8,7.9,1.7c2.6,2.5,3.4,4.4,3.1,7.4c-0.3,3.1-1.4,6.9-2.4,9c-1,2.2-3.3,4.7-3.9,4.4
		c-0.6-0.4,0-2.3,0-2.3s0.6-4.5-0.2-6.1c-0.8-1.6-3.9-7.4-4.2-10.2C426.8,515.5,426.9,514.4,426.9,514.4L426.9,514.4z M414.1,514.1
		c0,0,3.2-0.6,4.7-1.1c1.5-0.5,1.9-1.5,3.6,0.3c1.7,1.8,1.2,5.7,0.4,7.2s-4.5,1.6-4.5,1.6s-3.9-0.3-6.4-1c-2.5-0.7-2-6.6-2-6.6
		L414.1,514.1z M400.2,516c1.3,0,5.4-0.9,5.4-0.9c0.7,0.6,0.8,3.7,0.8,4.9s-0.3,1.8-0.3,1.8s-1.4-0.6-2.1-0.8
		c-0.7-0.2-1.8,0.2-2.7,0.3c-0.9,0.1-4.2-0.7-5.6-1.2c-1.4-0.5-1.3-0.6-2.1-2c-0.8-1.4-1.9-2.8-1.9-2.8S398.9,516,400.2,516
		L400.2,516z M377.4,519.7c0,0-2.9,0.1-3.4-2c-0.5-2.1,0.5-3.3,0.7-3c0.2,0.3,0.6,0.7,1.5,0.5c1-0.2,8.1-0.3,8.1-0.3
		s5.5,0.2,5.5,1.9c0,1.7-1.1,2.2-1.1,2.2s-1.9-0.4-2.5-0.4c0,0-3.2-0.5-4.2-0.5c-1,0-2.7,1-2.7,1S378.3,519.8,377.4,519.7z
		 M362.5,534.1c0,0-1.1,1.5-1.2,0.2c-0.1-1.3-1-10.3-1.3-11.4c-0.3-1.1-1.7-4.9-1.7-4.9s-1.2-3.1,0.1-3.1c0,0,3.2,0.1,5.7,0.8
		c2.4,0.7,4.3,1.4,4.7,2.1c0.3,0.7,0.6,1.3-0.1,3.5C368,523.4,363.7,532.4,362.5,534.1L362.5,534.1z M382.6,548.1
		c0,0-1.8-0.1-1.8-0.5s2.1-0.8,3.2-0.8c1.1,0,5.2-0.3,6.2-1.6c1.1-1.3,1.7-2.4,1.7-3c0-0.7,0.2-2.9,1.3-2.7c1.1,0.2,2,2.2,2,3.4
		c0,1.2-1.9,3.4-3.8,4.2C389.5,547.8,388.5,548.1,382.6,548.1z M265.8,461.1c0,0-0.7-0.1-1.2-1.5c-0.5-1.4-2-8.3-1.4-9.7
		c0,0,0.2-0.1,0.5,1.2c0.3,1.3,1.5,3.9,1.5,3.9s1.1,2.7,1.5,3c0.4,0.3,0.5,0.7,0.4,1.5S266.6,460.8,265.8,461.1z M273,460.7
		c0,0,1.2-0.7,1.5-1.9c0.3-1.1-3-6.4-5-8.9s-6.9-7-6.9-7s-1,6.5-1.1,9.2c-0.1,2.6,0.8,7.9,1.9,10.3c1.1,2.3,3,2.3,3,2.3
		C269.7,464.3,273,460.7,273,460.7L273,460.7z M317.7,517.9c-1.1,1.9-2,3.7-2.9,4c-0.9,0.3-1.6-1-2.9-2.7c-1.3-1.7-2.4-2.7-2.4-2.7
		s-0.9-1-0.8,1.7c0.1,2.7,3.1,7.2,3.1,7.2s1.9,2.8,2.8,3.1c1,0.3,2.7-3.1,2.7-3.1l4.1-7.1c0,0,1.1-1.8,1.9-1.9c0.8-0.1,5.6,7,5.6,7
		s2.5,3.6,5.4,3.8c2.9,0.3,4-6.5,4.6-8.2c0.6-1.7,0.6-2.1,2.1-2.6c1.5-0.5,4,3.4,4,3.4l5.3,5.9c0,0-9.1,4.2-10.8,5.9
		c0,0-2,1.6-2.2,1.8c-0.3,0.2-0.9,0.7-1.5,0.3c-0.7-0.3-2.1-3.3-4.5-3.2c-2.4,0.1-3.9,3.9-3.9,3.9s-1.6,4.1-3.1,4
		c-1.5-0.1-3.7-2.4-4.8-4.2c-1.1-1.9-1.2-2.8-2.4-2.8c-1.3,0.1-2.2,1.8-2.2,1.8s-1.7,2.8-3.7,2.4c-2-0.4-3.9-9.3-3.9-9.3
		s-1.5-13.8,0.5-19.1c2-5.4,6.4-5.9,9.9-4.2c3.5,1.7,4.5,3.9,4.9,3.4c0.4-0.5,2.6-7.2,6.5-6.1c0,0,0.9-0.1,3,1.4
		c2.1,1.5,10.2,7.6,13.5,9.3c3.3,1.7,8.7,2.9,9.3,4.3c0.6,1.5,2.3,7.3,2.3,7.3s-3,1.9-4.3,0.8s-6.9-7.7-6.9-7.7s-3.9-4.2-5.6-3.8
		c-1.7,0.5-2.1,2.1-2.1,2.1s-4,7.3-5.5,6.7c-1.5-0.6-4.6-6.2-4.6-6.2s-2.1-3.5-4.6-3.6C321.8,510.8,318.8,516.1,317.7,517.9
		L317.7,517.9z M330.6,557.7c1,0,3.9,1.2,3.9,3.7c-0.1,2.5-2.4,2.6-2.4,2.6s-3.6-0.3-4-3.8C327.8,558.6,329.6,557.8,330.6,557.7z
		 M323.8,563.3c0.4,1.2,1.5,3,2.2,3.2c0.7,0.3,0.8,0.7,0.8,0.7s0.7,0.6-2.1,2.7c-2.8,2.1-13.4,8.3-13.4,8.3s-0.9,0.5-1.7,0.9
		c-0.8,0.5-1.4,0.4-1.7-0.1c-0.3-0.4-3.1-3.4-2.8-8.1c0.3-4.7,0.7-3.4,0.1-5.9c-0.6-2.4,2.2-2.7,3.2-2.6c1,0.1,5,1.2,7.1,0.5
		c2.2-0.7,5.3-1.5,7.4-4.3C322.9,558.7,323.4,562.2,323.8,563.3L323.8,563.3z M222,596.7c0,0,0-0.4,0.7-1.1c0.7-0.6,5-4.2,5-4.2
		s1.7-0.8,2.1-0.9c0.4-0.2,0.9-0.6,1.3-0.7c0.3-0.1,0.7-0.5,0.7,0c0,0.6-1,1.9-1.5,2.1C229.8,592.2,222.8,597.3,222,596.7L222,596.7
		z M232.9,594.4c3.5-1.8,2.6-4.8,2.6-4.8s-0.5-5-3.8-5.2c-3.3-0.3-5.7,2.4-5.7,2.4s-6.8,8.4-8.6,10.7c-1.7,2.3-1.1,2.4-1.1,2.4
		C217.2,600.7,229.4,596.2,232.9,594.4L232.9,594.4z M206,545c0,0-1.4,0.1-1.5-0.3c-0.1-0.3,1.1-0.4,1.1-0.4s2-0.4,3-0.6
		c1-0.2,4.7-0.5,4.7-0.5s4.5-0.4,4.6,0.1c0.1,0.6-2.1,1.1-2.1,1.1S210.6,545.2,206,545L206,545z M205.7,541.7
		c-0.7,0.3-5.7,2-6.8,2.2c-1.1,0.2-1.1,0.8-1.1,0.8c0.2,0.9,5.1,2.6,8,3.6c2.9,1,8.1,2.2,10.9,2.2c2.7,0,3.3-0.5,4.3-2.3
		c0.9-1.8,0.3-6.5-0.7-8c-1.1-1.5-4-1.4-4-1.4C212.8,538.6,206.4,541.5,205.7,541.7L205.7,541.7z M230.1,497.7c0,0-0.8,0-3.5-1.1
		s-6.5-3.3-6.5-3.3s-0.2-0.2-0.1-0.4c0.1-0.2,0.5,0,0.5,0s2.3,0.8,2.7,0.8c0.4,0,2.8,0.7,3.8,1.1c0.9,0.4,2.4,1.5,2.8,1.6
		c0.4,0.1,1.4,0.3,1.3,0.8C231.1,497.8,230.1,497.7,230.1,497.7L230.1,497.7z M235.5,498.7c0,0,1.7-4.5,0.9-7.1
		c-0.7-2.7-8.3-1.9-10.4-1.8c-2.1,0-9.8-0.5-10.7-0.4c-0.9,0.1-0.8,0.9-0.8,0.9s0.1,1.3,7.7,7.1c7.6,5.8,8.8,5,8.8,5
		C234,502.2,235.5,498.7,235.5,498.7z M321.7,447.1c0,0-0.7-0.3-0.6-0.9c0-0.6,1-2.2,1-2.2l3.2-4.4c0,0,0.7-0.9,0.8-0.7
		c0.2,0.1-0.5,1.6-0.5,1.6l-0.9,2.1c0,0-0.5,1.3-0.8,1.6c-0.3,0.3-0.5,1-0.5,1s0.1,0.4,0,0.9C323.1,446.6,322.5,447.1,321.7,447.1
		L321.7,447.1z M326.8,451.1c1-0.2,1.4-1.8,1.4-1.8l1.6-6.5c0,0,1.6-8.4-0.2-8.5c-1.8-0.1-6.9,6.3-6.9,6.3s-4.3,5.4-4.1,6.9
		c0.2,1.5,1.7,2.4,1.7,2.4C322.6,450.8,325.8,451.3,326.8,451.1"/>
	<path class="st3" d="M264.8,507.8c0,0,0.3-4.9,1.2-4.8s1.9,1.3,2.1,1.8c0.3,0.5,3.2,8.2,4,10.3c0.8,2.1,8.5,18.1,13.6,23.3
		c5.2,5.2,5.5,5,5.6,6.2c0.1,1.1-1.9,1.6-3.3,0.7c-1.5-0.9-6.8-2.9-16.7-20.4C271.2,525,265.6,515.8,264.8,507.8L264.8,507.8z
		 M312,610.1c0,0-5.1,1.7-5.8,0.4c-0.7-1.3,3.3-2.1,3.3-2.1s6.4-3.1,7.7-4.3c1.4-1.2,4.3-4,5.8-4.5c1.5-0.4,2.7-0.8,3.1,0.3
		c0.4,1.1-0.7,3.1-1.5,3.6C323.8,604.1,315.4,609,312,610.1L312,610.1z M416.1,537.6c0,0-1.8,0-2.6-1.7c-0.8-1.7,0.1-2.6,0.6-2.7
		c0.5-0.1,2,0.1,2.7,1.2C417.6,535.5,418.2,537.1,416.1,537.6z M409.4,536c0,0,2.8,0,2.4,2.5s-2.7,2.3-2.7,2.3s-2.1,0.1-2.3-2.1
		C406.7,536.5,409.4,536,409.4,536L409.4,536z M377.3,535.4c0,0-2.2-0.2-2.5-2.5c0,0,0.3-2.4,2.6-2.3c2.2,0.1,2.3,2.4,2.3,2.4
		S379.8,535.1,377.3,535.4L377.3,535.4z M369.6,539.5c0,0-2.1-0.1-2.4-2c0,0,0.1-1.6,2.2-1.5c2,0.1,2.5,1.5,2.5,1.9
		C371.8,538.2,371.9,539.4,369.6,539.5z M353.8,536.6c0,0-1.8-0.2-2-2c-0.2-1.8,1.8-1.8,2.3-1.7c0.5,0.1,1.6,1.1,1.3,2.3
		C355.1,536.5,353.8,536.6,353.8,536.6L353.8,536.6z M371.1,541.2c2.6-0.7,9.7-2.1,11.3-2.4c1.6-0.3,5-2.4,6.5-4.6
		c1.5-2.2,3.5-2.4,3.5-2.4c2.6-0.3,5.8,4.4,6.3,9c0.5,4.6-2.1,7.7-2.1,7.7s-3.3,4-12,3.4c0,0-3-0.7-7.9-2.5
		c-4.9-1.8-9.4-2.7-10.3-5.3C365.5,542.2,368.4,541.9,371.1,541.2L371.1,541.2z M294.9,530.2c1.5,6.4,3.9,14.1,6.2,18.4
		c2.3,4.3,7.7,8.8,11.1,9.5s9.7-4,9.7-4s10.4-7.9,15.6-10.6c5.2-2.7,7-2.8,10.4-3.5c3.5-0.7,8.9-0.3,8.9-0.3s4.6,0.2,4.1,0.9
		c-0.5,0.7-3.4,0.6-3.4,0.6s-3.7,0.4-7,1.1s-6.2,3.1-6.2,3.1c4.1,4.7,13,2.9,14.8,3.2c1.8,0.3-0.4,3.7-0.7,4.4
		c-0.3,0.7-3.5,1.2-6.2,2c-2.7,0.8-8.8,6.2-8.8,6.2l-26.6,19.9c0,0-6.1,4.3-11.7,5.2c-5.6,0.9-7.5-3.3-8.2-5.1
		c-0.7-1.8-0.6-3.1,0-3.5c0.6-0.4,1.6,0.3,1.6,0.3s1.5,1.8,3.4,2c1.9,0.2,2.9-2.5,2.9-2.5c-2.7-2.3-3.5-4.2-3.7-9
		c-0.2-4.8,1.8-7.4,1.8-7.4s1.5-1.3,1.4-2.2c0-1-0.7-1.9-2.9-2.6c-2.2-0.7-3.4-0.2-4.7,0.2c-1.3,0.4-5.3-0.9-5.7-1s-1.8-0.4-1.9,0.6
		c-0.1,1,5.2,5.4,5.2,5.4s4.9,4.8,4.5,6.3c-0.4,1.5-1.4,2.2-1.4,2.2s-4.7,3.4-7.2,7c-2.6,3.7-2.5,7.9-2.5,7.9
		c0.3,8.7,8.6,8.2,8.6,8.2c13.4,0.5,29.9-13.8,36.3-18.8c6.5-5,19.7-14.3,19.7-14.3s5.2-3.1,8.2-3.5c3.1-0.4,5.7,4,5.9,5.8
		c0.3,1.8-0.9,3.7-1.8,3.7c-0.9,0-0.8-2.5-0.8-2.5s0.1-1.6-1.9-2.2c-2-0.6-8.3,5-8.3,5s-8.7,8.6-19.9,19.1s-19.4,13.8-26.3,16.6
		c-6.9,2.8-13.6,2.9-17.2,2.4c-3.6-0.5-10.8-7.5-11.2-17.7c-0.4-10.2,10.8-16.8,10.8-16.8s3-1.8,3.2-2.4c0.2-0.6-0.1-1.3-1.2-2.5
		c-1.1-1.2-5.5-6.1-6.3-7.7c-0.8-1.7-0.3-1.7-0.3-3.4c0-1.7-4.9-4.9-4.9-4.9s-19.7-13.4-30.9-21.9c-11.2-8.5-12.4-17.3-12.4-17.3
		c-4.7,7.3-7.9,18.9-8.8,23.3c-0.9,4.5,0.1,4.7,0.1,4.7c1.6,0.9,3.5-0.7,6.7-3.4c3.2-2.7,4.1-6.3,4.1-6.3s0-2.3,1-2.1
		c1,0.2,0.5,3.1,0.2,4.8c-0.3,1.7-1.4,3.4-2.9,5.7c-1.5,2.3-10.7,9.9-11.4,10.4c-0.7,0.5-1.5,1.4-1.6,1.9c-0.1,0.6,1.1,0.9,1.1,0.9
		s0.8,0.2,0.9,1.3c0.1,1.1-2.2,4.1-2.1,6c0.1,1.9,0.7,4.3,2.5,7.2s10.8,18.8,13.3,24.9c2.5,6.2,6.4,8.1,6.4,8.1s3.3,1.8,4,0.2
		c0.7-1.6,1-7.5,1-8.7c0-1.2,0.1-1.2,0.1-1.2c0.8,0.2,1.9,4,2.8,6.7c0.9,2.7,0.6,5.5,0.2,6.1c-0.4,0.6-1.1,3.7-1.1,3.7
		c2.5,0.8,6,3.1,7.3,5c1.3,1.9,1.7,1.5,1.7,1.5c2.1,0.3,5.9-3.3,6.5-4c0.6-0.7,1.8-0.7,1.6,1.7c-0.2,2.4-3,4.1-3,4.1l-3.3,1.7
		l-0.1,1.9c0,0,0.2,3-0.9,3c-1.1,0-2.1-1.5-3.5-4.1s-3.5-3.9-3.5-3.9c-4-2.4-9.1-3.7-19.5-2.7c-10.3,1-14.9,9.9-15.3,11.3
		c-0.4,1.4,0.3,2.2,0.3,2.2s0.7,0.6,1.9,0.3c1.2-0.3,5.5-1.6,10.9-1.1c0,0,0.4-0.7-0.5-1.8c-0.9-1.1-1.1-2.1-1.1-2.1
		s0.2-0.4,2.3,1.1c2.1,1.5,1.7,2.6,3.2,3.4c1.5,0.8,2.8,1.3,5,3.8c2.2,2.6,4.1,5.9,4.1,5.9s1.2,2.3,3,2.3c1.8,0,6.2-1,7.4-1.5
		c1.2-0.5,6.4-1.7,9.3-4.9c3-3.2,8.6-10.6,8.6-10.6s5.3-6.7,6.7-7.9c1.4-1.2,3-2.8,3.9-1.8c0,0,0.3,0.2-0.1,1.3
		c-0.4,1.1-0.8,1.7,0.1,2.1s12.6,4,25.2,1.4c0,0,11.1-3.2,16.5-5c5.4-1.7,21.8-7.1,21.8-7.1s7.7-2.5,11-4.4c3.2-1.9,9.9-6.9,9.9-6.9
		s2.1-1.6,1.8-2c-0.3-0.4-1.3-0.2-1.3-0.2s-1.3,0-1.2-0.8c0.1-0.8,2.5-1.2,2.5-1.2s7.1-0.5,8.7-1c0,0,3.4-0.7,10.6-4.5
		c7.2-3.8,8.3-5.2,9.5-8.1c1.1-3,1.2-6.6,0.1-8c-1.1-1.4-4.2-2.2-8-2.1c-3.8,0.1-10.9,1.1-16.1,6.1c-5.2,5-6.8,10.7-6.8,10.7
		s-2.5,5.4-4,7.1c-1.5,1.7-4.5,5.4-5.9,4.8c0,0-0.4-0.1,0.1-1.3c0.5-1.1,7.3-12.1,7.3-12.1s-2.2-0.4-7.7,5.3
		c-5.5,5.6-13.1,10.9-14.9,10.6c-1.8-0.3-2.8-0.5-2.7-1.4c0.1-0.9,2.2-2.2,2.2-2.2l19.5-15.5c0,0,5.2-3.8,5.8-9.1
		c0.6-5.3-1.1-8.8-4.2-11.1c-3.1-2.3-5.9-4-6.2-4.8c-0.3-0.7,0.9-0.3,1.3-0.3c0.4,0.1,12.7,3.8,15.5,4.6c2.8,0.8,9,2.2,11.3,2.2
		c2.3-0.1,5.4-0.8,8.8-4.3c3.4-3.5,3.2-4.5,3.2-4.5s-0.6-1,1.3-0.9c1.9,0.1,6.2,1.3,11.4-1c5.2-2.3,8.2-6.7,8.8-10
		c0.6-3.3,0.4-6.9-0.7-7.4c-1.1-0.5-2.7-0.3-2.7-0.3s-4.6,1-5.9,0.9c-1.3-0.1-6.2-0.2-6.4-0.2c-0.2,0-4.7-0.3-8,2.2
		c0,0-1,0.8-1.5,1.4c-0.5,0.6-1.1,1.1-1.4,0.6c-0.3-0.5-0.1-1.6-0.1-1.6s0.1-1.8-1.3-2.8c-1.4-1.1-5.7-3.8-8.4-3.8
		c-2.6,0.1-4.1,1.1-8.7,1c-4.6-0.1-4.5-0.3-4.8,0.8c-0.3,1.1-5,13.5-12.4,14.5c0,0-0.9,0.2-0.9-1.7c0-1.9-0.1-2.4,0-3.7
		c0.1-1.3,0.8-7.9-0.9-7.7c-1.7,0.1-4,1.9-4,1.9l-14,9l-16.5,12.2c0,0-5.8,3.8-9,3.6c-3.2-0.3-6.1-4.4-6.6-6.4s-0.1-3,0.3-2.8
		c0.4,0.2,2.8,2.7,3.2,2.6c0.4-0.1-0.1-1.1-0.1-1.1s-2.8-5.8-4.5-11.2c-1.7-5.4-4.1-15.5-3-24.8c1.1-9.3,2.3-17.8,4.3-23.9
		c2-6.1,6.8-16,6.8-16s1.3-2.8,0.5-5.6c-0.8-2.7-2.8-9.5-11.5-9.5c-8.7-0.1-18-0.1-22.1,3.4c-4.1,3.6-6.6,8.7-16.8,10.7
		c0,0-5.4,0.2-7.1,1.5c-1.7,1.3-4.4,3.6-8.5,11.8c-4.2,8.1-8.3,18.5-8.1,23.6c0.3,5.1,3.8,9.7,3.8,9.7s5.4,7.5,14,14
		c8.6,6.5,24.2,17.2,24.2,17.2s9.8,6.9,15.4,6.9c0,0-2.6-4.4-4.2-12.1c-1.6-7.7-4.2-14.1-4.2-14.1s-1.2-2.2,0.3-2.2
		c1.4,0,3.4,0.2,4.1,1.9C294.4,527.7,294.9,530.2,294.9,530.2L294.9,530.2z M272.1,574.5c0,0-1.7,4.1-2.3,6
		c-0.6,1.9-0.7,3.2-0.7,5.9s-1.6,3-1.6,3s-0.7-0.1-0.9-1.1c-0.2-1-0.3-3.9-0.1-5.1c0.2-1.2,1.4-4.9,2.1-6.2c0.7-1.3,2.6-4.1,2.2-5.8
		c-0.4-1.7-0.2-2.5-2.9-6.8c0,0,4.8,2.2,4.8,7.2L272.1,574.5z M374.3,562c0,0-0.7-4.1-0.8-5.5s0.5-2.5,0.5-2.5l6.7,1.9
		C380.7,555.9,378.9,563.1,374.3,562L374.3,562z M434.7,488.6c0,0-9-0.5-11.9-4.8c-2.9-4.2-8.3-8.1-8.3-8.1s-6.4-4.9-5.6-5.6
		c0.7-0.7,3.8-0.3,3.8-0.3s9.1,0.9,12.8,3.7C429.2,476.3,431.9,477.6,434.7,488.6z M434.4,494c13.7,1.3,14.8,6.9,15.4,8.7
		c0.7,1.7-0.1,2.3-0.3,6.2c-0.1,4-2.1,5.8-3.6,6.5c-1.5,0.7-2.1,2.8-8.6-0.8c-6.5-3.6-12-3.6-12-3.6s4.7-1.8,5.4-2.2
		c0.7-0.3,1.8-1.4,0.7-2.3c-1.1-0.9-3-1.1-4.2-0.8c-1.2,0.3-5.4,3.2-18.1,5c-12.7,1.9-26.4,0.4-26.4,0.4s-1.2-0.3-4.6,0.4
		s-7.4,1.3-10.7,1.3s-14.2-2-21.4-7.3c-7.3-5.3-14.4-12-14.4-12s-4.5-4.1-11-3.8s-10.3,4.1-10.3,4.1s2.8-11.8,5-16.5
		c2.3-4.8,4.4-9.5,3.8-13.6c-0.5-4.1-2-6-2-6s-0.9-0.8,0.7-1.5c1.6-0.7,5.7-2.1,9.9-1.6c4.2,0.5,13.5,2.9,13.5,2.9s5.9,1.5,8.9,1.6
		c3,0.1,11-0.1,14.8,0.5s17.1,3.4,20.4,8.2c3.3,4.8,3.3,6.5,5.3,7.5c2,1.1,2.3,0.3,2-0.7c-0.3-0.9-3.1-6.1-3.1-6.1s2.2-0.8,5.8-0.4
		c3.6,0.4,6.4,1.4,13,6.5c6.6,5,12.7,11.7,12.7,11.7s-6.1-0.7-13.9,0.9c-7.8,1.6-20.1,7.1-20.1,7.1s-9.9,3.8-18.8,3.6
		c-8.9-0.3-17.9-2.5-17.9-2.5s-9.4-2.2-9.3-0.6c0.1,1.6,1.9,2.4,1.9,2.4s11.9,6.8,20.6,6.3c8.7-0.6,23.6-3,30.2-4.7
		c6.6-1.7,22.8-8.1,28.5-8.1c5.7,0,8.7,0.8,10.6,1.5C434.6,493,434.4,494,434.4,494L434.4,494z M355.1,618.7
		c2.8-1.5,5.7-7.3,7.4-10.2c1.8-2.9,6.3-6.5,7.2-7c1-0.6,6.8-3.3,6.8-3.3s1.5-0.8,1.8-1.7c0.3-1-2.1-2.2-4.5-2.7
		c-2.5-0.5-5,0.7-6.6,1.9s-4.4,3.1-6.9,4.5c-2.6,1.4-5,6.3-5,6.3s-2.7,5.7-3.1,6.5c-0.4,0.8-1.6,1.6-2.3,1.1c-0.7-0.5,0.2-1.6,1.1-3
		c0.9-1.4,1.4-3.2,1.8-4.7c0.4-1.5,1.2-3.2,0.8-3.1c-0.4,0.1-5.2,1.6-6.6,2.1c-1.4,0.5-11.8,3.7-13,4.2c-1.2,0.5-1,2.2-1,2.2
		s0.8,3.8,3.2,7.1c2.4,3.4,7.4,2.9,7.4,2.9C351.3,621.2,352.3,620.2,355.1,618.7"/>
</g>
</svg>
